<svg width="120" height="40" viewBox="0 0 120 40" fill="none" xmlns="http://www.w3.org/2000/svg">
<rect x="0.5" y="0.5" width="119" height="39" rx="6.5" fill="#0C0D10"/>
<path d="M81.5259 19.2009V21.4919H80.0898V22.9944H81.5259V28.0994C81.5259 29.8425 82.3144 30.5398 84.2983 30.5398C84.647 30.5398 84.979 30.4983 85.2695 30.4485V28.9626C85.0205 28.9875 84.8628 29.0042 84.5889 29.0042C83.7007 29.0042 83.3105 28.5891 83.3105 27.6428V22.9944H85.2695V21.4919H83.3105V19.2009H81.5259Z" fill="white"/>
<path d="M90.3234 30.6643C92.963 30.6643 94.5817 28.8962 94.5817 25.9661C94.5817 23.0525 92.9547 21.2761 90.3234 21.2761C87.6837 21.2761 86.0568 23.0525 86.0568 25.9661C86.0568 28.8962 87.6754 30.6643 90.3234 30.6643ZM90.3234 29.0789C88.7711 29.0789 87.8995 27.9417 87.8995 25.9661C87.8995 24.0071 88.7711 22.8616 90.3234 22.8616C91.8673 22.8616 92.7472 24.0071 92.7472 25.9661C92.7472 27.9334 91.8673 29.0789 90.3234 29.0789Z" fill="white"/>
<path d="M95.9666 30.49H97.7512V25.1526C97.7512 23.8826 98.7058 23.0276 100.059 23.0276C100.374 23.0276 100.906 23.0857 101.055 23.1355V21.3757C100.864 21.3259 100.524 21.301 100.258 21.301C99.0794 21.301 98.075 21.9485 97.8176 22.8367H97.6848V21.4504H95.9666V30.49Z" fill="white"/>
<path d="M105.486 22.7952C106.806 22.7952 107.669 23.7166 107.711 25.136H103.145C103.245 23.7249 104.166 22.7952 105.486 22.7952ZM107.703 28.0496C107.371 28.7551 106.632 29.1453 105.553 29.1453C104.125 29.1453 103.204 28.1409 103.145 26.5554V26.4558H109.529V25.8333C109.529 22.9944 108.01 21.2761 105.495 21.2761C102.946 21.2761 101.328 23.1106 101.328 25.9993C101.328 28.8879 102.913 30.6643 105.503 30.6643C107.57 30.6643 109.014 29.6682 109.421 28.0496H107.703Z" fill="white"/>
<path d="M69.8223 27.1518C69.9599 29.3715 71.8097 30.7911 74.5628 30.7911C77.5052 30.7911 79.3464 29.3027 79.3464 26.9281C79.3464 25.0612 78.2967 24.0288 75.7501 23.4351L74.3821 23.0996C72.7647 22.721 72.1108 22.2134 72.1108 21.3272C72.1108 20.2088 73.126 19.4775 74.6489 19.4775C76.0942 19.4775 77.0923 20.1916 77.2729 21.3359H79.1485C79.0366 19.2452 77.1955 17.774 74.6747 17.774C71.9646 17.774 70.1578 19.2452 70.1578 21.4563C70.1578 23.2802 71.1816 24.3643 73.4272 24.8891L75.0274 25.2763C76.6707 25.6634 77.3934 26.2313 77.3934 27.1776C77.3934 28.2789 76.2577 29.079 74.7091 29.079C73.0486 29.079 71.8957 28.3305 71.7323 27.1518H69.8223Z" fill="white"/>
<path d="M51.3349 21.301C50.1064 21.301 49.0439 21.9153 48.4961 22.9446H48.3633V21.4504H46.645V33.4949H48.4297V29.1204H48.5708C49.0439 30.075 50.0649 30.6394 51.3516 30.6394C53.6343 30.6394 55.0869 28.8381 55.0869 25.9661C55.0869 23.094 53.6343 21.301 51.3349 21.301ZM50.8286 29.0374C49.3345 29.0374 48.3965 27.8586 48.3965 25.9744C48.3965 24.0818 49.3345 22.9031 50.8369 22.9031C52.3476 22.9031 53.2524 24.0569 53.2524 25.9661C53.2524 27.8835 52.3476 29.0374 50.8286 29.0374Z" fill="white"/>
<path d="M61.3317 21.301C60.1032 21.301 59.0407 21.9153 58.4929 22.9446H58.3601V21.4504H56.6418V33.4949H58.4265V29.1204H58.5676C59.0407 30.075 60.0617 30.6394 61.3483 30.6394C63.6311 30.6394 65.0837 28.8381 65.0837 25.9661C65.0837 23.094 63.6311 21.301 61.3317 21.301ZM60.8254 29.0374C59.3313 29.0374 58.3933 27.8586 58.3933 25.9744C58.3933 24.0818 59.3313 22.9031 60.8337 22.9031C62.3444 22.9031 63.2492 24.0569 63.2492 25.9661C63.2492 27.8835 62.3444 29.0374 60.8254 29.0374Z" fill="white"/>
<path d="M43.443 30.49H45.4906L41.0082 18.0751H38.9348L34.4523 30.49H36.4311L37.5754 27.1948H42.3073L43.443 30.49ZM39.8725 20.3292H40.0188L41.8169 25.5774H38.0658L39.8725 20.3292Z" fill="white"/>
<path d="M24.769 20.3008C24.7907 18.6198 25.6934 17.0292 27.1256 16.1488C26.2221 14.8584 24.7088 14.0403 23.1344 13.9911C21.4552 13.8148 19.8272 14.9959 18.9715 14.9959C18.0992 14.9959 16.7817 14.0086 15.363 14.0378C13.5137 14.0975 11.7898 15.1489 10.8901 16.7656C8.95607 20.1141 10.3987 25.0351 12.2513 27.7417C13.1782 29.0671 14.2615 30.5475 15.6789 30.495C17.066 30.4375 17.584 29.6105 19.2583 29.6105C20.9171 29.6105 21.4031 30.495 22.8493 30.4616C24.3377 30.4375 25.2754 29.1304 26.1698 27.7925C26.8358 26.8481 27.3483 25.8044 27.6882 24.7C25.9391 23.9602 24.771 22.2 24.769 20.3008Z" fill="white"/>
<path d="M22.0373 12.2111C22.8489 11.2369 23.2487 9.98469 23.1518 8.72046C21.912 8.85068 20.7668 9.44324 19.9443 10.3801C19.14 11.2954 18.7214 12.5255 18.8006 13.7415C20.0408 13.7542 21.2601 13.1777 22.0373 12.2111Z" fill="white"/>
<path d="M40.733 8H39.8523C39.8002 7.74669 39.709 7.52415 39.5788 7.33239C39.451 7.14062 39.2947 6.97964 39.1101 6.84943C38.9278 6.71686 38.7254 6.61742 38.5028 6.55114C38.2803 6.48485 38.0483 6.4517 37.8068 6.4517C37.3665 6.4517 36.9676 6.56297 36.6101 6.78551C36.255 7.00805 35.9721 7.33594 35.7614 7.76918C35.553 8.20241 35.4489 8.7339 35.4489 9.36364C35.4489 9.99337 35.553 10.5249 35.7614 10.9581C35.9721 11.3913 36.255 11.7192 36.6101 11.9418C36.9676 12.1643 37.3665 12.2756 37.8068 12.2756C38.0483 12.2756 38.2803 12.2424 38.5028 12.1761C38.7254 12.1098 38.9278 12.0116 39.1101 11.8814C39.2947 11.7488 39.451 11.5866 39.5788 11.3949C39.709 11.2008 39.8002 10.9782 39.8523 10.7273H40.733C40.6667 11.099 40.5459 11.4316 40.3707 11.7251C40.1955 12.0187 39.9777 12.2685 39.7173 12.4744C39.4569 12.678 39.1645 12.8331 38.8402 12.9396C38.5182 13.0462 38.1738 13.0994 37.8068 13.0994C37.1866 13.0994 36.6349 12.9479 36.152 12.6449C35.669 12.3419 35.2891 11.911 35.0121 11.3523C34.7351 10.7936 34.5966 10.1307 34.5966 9.36364C34.5966 8.59659 34.7351 7.93371 35.0121 7.375C35.2891 6.81629 35.669 6.38542 36.152 6.08239C36.6349 5.77936 37.1866 5.62784 37.8068 5.62784C38.1738 5.62784 38.5182 5.68111 38.8402 5.78764C39.1645 5.89418 39.4569 6.05043 39.7173 6.25639C39.9777 6.45999 40.1955 6.70857 40.3707 7.00213C40.5459 7.29332 40.6667 7.62595 40.733 8ZM44.2583 13.1136C43.7659 13.1136 43.3339 12.9964 42.9622 12.7621C42.5929 12.5277 42.304 12.1998 42.0957 11.7784C41.8897 11.357 41.7868 10.8646 41.7868 10.3011C41.7868 9.73295 41.8897 9.23698 42.0957 8.81321C42.304 8.38944 42.5929 8.06037 42.9622 7.82599C43.3339 7.59162 43.7659 7.47443 44.2583 7.47443C44.7508 7.47443 45.1816 7.59162 45.551 7.82599C45.9226 8.06037 46.2115 8.38944 46.4174 8.81321C46.6258 9.23698 46.7299 9.73295 46.7299 10.3011C46.7299 10.8646 46.6258 11.357 46.4174 11.7784C46.2115 12.1998 45.9226 12.5277 45.551 12.7621C45.1816 12.9964 44.7508 13.1136 44.2583 13.1136ZM44.2583 12.3608C44.6324 12.3608 44.9402 12.2649 45.1816 12.0732C45.4231 11.8814 45.6019 11.6293 45.7179 11.3168C45.8339 11.0043 45.8919 10.6657 45.8919 10.3011C45.8919 9.93655 45.8339 9.59683 45.7179 9.28196C45.6019 8.96709 45.4231 8.71259 45.1816 8.51847C44.9402 8.32434 44.6324 8.22727 44.2583 8.22727C43.8843 8.22727 43.5765 8.32434 43.335 8.51847C43.0936 8.71259 42.9148 8.96709 42.7988 9.28196C42.6828 9.59683 42.6248 9.93655 42.6248 10.3011C42.6248 10.6657 42.6828 11.0043 42.7988 11.3168C42.9148 11.6293 43.0936 11.8814 43.335 12.0732C43.5765 12.2649 43.8843 12.3608 44.2583 12.3608ZM48.0092 13V7.54545H48.8189V8.39773H48.8899C49.0036 8.10653 49.187 7.88045 49.4403 7.71946C49.6937 7.55611 49.9979 7.47443 50.353 7.47443C50.7128 7.47443 51.0123 7.55611 51.2514 7.71946C51.4929 7.88045 51.6811 8.10653 51.8161 8.39773H51.8729C52.0125 8.116 52.2221 7.89228 52.5014 7.72656C52.7808 7.55848 53.1158 7.47443 53.5064 7.47443C53.9941 7.47443 54.393 7.62713 54.7031 7.93253C55.0133 8.23556 55.1683 8.70786 55.1683 9.34943V13H54.3303V9.34943C54.3303 8.94697 54.2202 8.65933 54 8.48651C53.7798 8.31368 53.5206 8.22727 53.2223 8.22727C52.8388 8.22727 52.5417 8.34328 52.331 8.57528C52.1203 8.80492 52.0149 9.09612 52.0149 9.44886V13H51.1626V9.2642C51.1626 8.95407 51.062 8.70431 50.8608 8.51491C50.6596 8.32315 50.4003 8.22727 50.0831 8.22727C49.8653 8.22727 49.6617 8.28527 49.4723 8.40128C49.2853 8.51728 49.1338 8.67827 49.0178 8.88423C48.9041 9.08783 48.8473 9.32339 48.8473 9.59091V13H48.0092ZM56.7006 13V7.54545H57.5387V13H56.7006ZM57.1268 6.63636C56.9634 6.63636 56.8226 6.58073 56.7042 6.46946C56.5882 6.35819 56.5302 6.22443 56.5302 6.06818C56.5302 5.91193 56.5882 5.77817 56.7042 5.6669C56.8226 5.55563 56.9634 5.5 57.1268 5.5C57.2901 5.5 57.4298 5.55563 57.5458 5.6669C57.6642 5.77817 57.7234 5.91193 57.7234 6.06818C57.7234 6.22443 57.6642 6.35819 57.5458 6.46946C57.4298 6.58073 57.2901 6.63636 57.1268 6.63636ZM59.9118 9.71875V13H59.0737V7.54545H59.8833V8.39773H59.9544C60.0822 8.12074 60.2763 7.8982 60.5368 7.73011C60.7972 7.55966 61.1333 7.47443 61.5453 7.47443C61.9146 7.47443 62.2377 7.55019 62.5147 7.7017C62.7917 7.85085 63.0072 8.07812 63.161 8.38352C63.3149 8.68655 63.3919 9.07008 63.3919 9.53409V13H62.5538V9.59091C62.5538 9.16241 62.4425 8.8286 62.22 8.58949C61.9975 8.34801 61.6921 8.22727 61.3038 8.22727C61.0363 8.22727 60.7972 8.28527 60.5865 8.40128C60.3781 8.51728 60.2136 8.68655 60.0929 8.90909C59.9721 9.13163 59.9118 9.40152 59.9118 9.71875ZM67.125 15.1591C66.7202 15.1591 66.3722 15.107 66.081 15.0028C65.7898 14.901 65.5471 14.7661 65.353 14.598C65.1612 14.4323 65.0085 14.2547 64.8949 14.0653L65.5625 13.5966C65.6383 13.696 65.7341 13.8097 65.8501 13.9375C65.9661 14.0677 66.1248 14.1802 66.326 14.2749C66.5296 14.3719 66.7959 14.4205 67.125 14.4205C67.5653 14.4205 67.9287 14.3139 68.2152 14.1009C68.5017 13.8878 68.6449 13.554 68.6449 13.0994V11.9915H68.5739C68.5123 12.0909 68.4247 12.214 68.3111 12.3608C68.1998 12.5052 68.0388 12.6342 67.8281 12.7479C67.6198 12.8591 67.3381 12.9148 66.983 12.9148C66.5426 12.9148 66.1473 12.8106 65.7969 12.6023C65.4489 12.3939 65.1731 12.0909 64.9695 11.6932C64.7682 11.2955 64.6676 10.8125 64.6676 10.2443C64.6676 9.68561 64.7659 9.1991 64.9624 8.7848C65.1589 8.36813 65.4323 8.04616 65.7827 7.81889C66.133 7.58925 66.5379 7.47443 66.9972 7.47443C67.3523 7.47443 67.634 7.53362 67.8423 7.65199C68.053 7.76799 68.214 7.90057 68.3253 8.04972C68.4389 8.1965 68.5265 8.31723 68.5881 8.41193H68.6733V7.54545H69.483V13.1562C69.483 13.625 69.3764 14.0062 69.1634 14.2997C68.9527 14.5956 68.6686 14.8123 68.3111 14.9496C67.956 15.0893 67.5606 15.1591 67.125 15.1591ZM67.0966 12.1619C67.4328 12.1619 67.7169 12.085 67.9489 11.9311C68.1809 11.7772 68.3572 11.5559 68.478 11.267C68.5987 10.9782 68.6591 10.6326 68.6591 10.2301C68.6591 9.83712 68.5999 9.49029 68.4815 9.18963C68.3632 8.88897 68.188 8.65341 67.956 8.48295C67.724 8.3125 67.4375 8.22727 67.0966 8.22727C66.7415 8.22727 66.4455 8.31723 66.2088 8.49716C65.9744 8.67708 65.7981 8.91856 65.6797 9.22159C65.5637 9.52462 65.5057 9.8608 65.5057 10.2301C65.5057 10.6089 65.5649 10.9439 65.6832 11.2351C65.804 11.5239 65.9815 11.7512 66.2159 11.9169C66.4527 12.0803 66.7462 12.1619 67.0966 12.1619ZM77.6932 8.76705L76.9403 8.98011C76.893 8.85464 76.8232 8.73272 76.7308 8.61435C76.6409 8.49361 76.5178 8.39418 76.3615 8.31605C76.2053 8.23793 76.0052 8.19886 75.7614 8.19886C75.4276 8.19886 75.1494 8.2758 74.9268 8.42969C74.7067 8.5812 74.5966 8.77415 74.5966 9.00852C74.5966 9.21686 74.6723 9.38139 74.8239 9.50213C74.9754 9.62287 75.2121 9.72348 75.5341 9.80398L76.3438 10.0028C76.8314 10.1212 77.1948 10.3023 77.4339 10.5462C77.6731 10.7876 77.7926 11.099 77.7926 11.4801C77.7926 11.7926 77.7027 12.072 77.5227 12.3182C77.3452 12.5644 77.0966 12.7585 76.777 12.9006C76.4574 13.0426 76.0857 13.1136 75.6619 13.1136C75.1056 13.1136 74.6451 12.9929 74.2805 12.7514C73.916 12.5099 73.6851 12.1572 73.5881 11.6932L74.3835 11.4943C74.4593 11.7879 74.6025 12.008 74.8132 12.1548C75.0263 12.3016 75.3045 12.375 75.6477 12.375C76.0384 12.375 76.3485 12.2921 76.5781 12.1264C76.8101 11.9583 76.9261 11.7571 76.9261 11.5227C76.9261 11.3333 76.8598 11.1747 76.7273 11.0469C76.5947 10.9167 76.3911 10.8196 76.1165 10.7557L75.2074 10.5426C74.7079 10.4242 74.3409 10.2408 74.1065 9.99219C73.8745 9.74124 73.7585 9.42756 73.7585 9.05114C73.7585 8.74337 73.8449 8.47112 74.0178 8.23438C74.1929 7.99763 74.4309 7.81179 74.7315 7.67685C75.0346 7.5419 75.3778 7.47443 75.7614 7.47443C76.3011 7.47443 76.7249 7.5928 77.0327 7.82955C77.3428 8.06629 77.563 8.37879 77.6932 8.76705ZM81.2701 13.1136C80.7776 13.1136 80.3456 12.9964 79.9739 12.7621C79.6046 12.5277 79.3158 12.1998 79.1074 11.7784C78.9015 11.357 78.7985 10.8646 78.7985 10.3011C78.7985 9.73295 78.9015 9.23698 79.1074 8.81321C79.3158 8.38944 79.6046 8.06037 79.9739 7.82599C80.3456 7.59162 80.7776 7.47443 81.2701 7.47443C81.7625 7.47443 82.1934 7.59162 82.5627 7.82599C82.9344 8.06037 83.2232 8.38944 83.4292 8.81321C83.6375 9.23698 83.7417 9.73295 83.7417 10.3011C83.7417 10.8646 83.6375 11.357 83.4292 11.7784C83.2232 12.1998 82.9344 12.5277 82.5627 12.7621C82.1934 12.9964 81.7625 13.1136 81.2701 13.1136ZM81.2701 12.3608C81.6441 12.3608 81.9519 12.2649 82.1934 12.0732C82.4348 11.8814 82.6136 11.6293 82.7296 11.3168C82.8456 11.0043 82.9036 10.6657 82.9036 10.3011C82.9036 9.93655 82.8456 9.59683 82.7296 9.28196C82.6136 8.96709 82.4348 8.71259 82.1934 8.51847C81.9519 8.32434 81.6441 8.22727 81.2701 8.22727C80.896 8.22727 80.5882 8.32434 80.3468 8.51847C80.1053 8.71259 79.9266 8.96709 79.8105 9.28196C79.6945 9.59683 79.6365 9.93655 79.6365 10.3011C79.6365 10.6657 79.6945 11.0043 79.8105 11.3168C79.9266 11.6293 80.1053 11.8814 80.3468 12.0732C80.5882 12.2649 80.896 12.3608 81.2701 12.3608ZM87.2369 13.1136C86.7444 13.1136 86.3124 12.9964 85.9407 12.7621C85.5714 12.5277 85.2826 12.1998 85.0742 11.7784C84.8683 11.357 84.7653 10.8646 84.7653 10.3011C84.7653 9.73295 84.8683 9.23698 85.0742 8.81321C85.2826 8.38944 85.5714 8.06037 85.9407 7.82599C86.3124 7.59162 86.7444 7.47443 87.2369 7.47443C87.7293 7.47443 88.1602 7.59162 88.5295 7.82599C88.9012 8.06037 89.19 8.38944 89.396 8.81321C89.6043 9.23698 89.7085 9.73295 89.7085 10.3011C89.7085 10.8646 89.6043 11.357 89.396 11.7784C89.19 12.1998 88.9012 12.5277 88.5295 12.7621C88.1602 12.9964 87.7293 13.1136 87.2369 13.1136ZM87.2369 12.3608C87.6109 12.3608 87.9187 12.2649 88.1602 12.0732C88.4016 11.8814 88.5804 11.6293 88.6964 11.3168C88.8124 11.0043 88.8704 10.6657 88.8704 10.3011C88.8704 9.93655 88.8124 9.59683 88.6964 9.28196C88.5804 8.96709 88.4016 8.71259 88.1602 8.51847C87.9187 8.32434 87.6109 8.22727 87.2369 8.22727C86.8628 8.22727 86.555 8.32434 86.3136 8.51847C86.0721 8.71259 85.8933 8.96709 85.7773 9.28196C85.6613 9.59683 85.6033 9.93655 85.6033 10.3011C85.6033 10.6657 85.6613 11.0043 85.7773 11.3168C85.8933 11.6293 86.0721 11.8814 86.3136 12.0732C86.555 12.2649 86.8628 12.3608 87.2369 12.3608ZM91.8258 9.71875V13H90.9877V7.54545H91.7974V8.39773H91.8684C91.9963 8.12074 92.1904 7.8982 92.4508 7.73011C92.7112 7.55966 93.0474 7.47443 93.4593 7.47443C93.8287 7.47443 94.1518 7.55019 94.4288 7.7017C94.7058 7.85085 94.9212 8.07812 95.0751 8.38352C95.229 8.68655 95.3059 9.07008 95.3059 9.53409V13H94.4679V9.59091C94.4679 9.16241 94.3566 8.8286 94.1341 8.58949C93.9115 8.34801 93.6061 8.22727 93.2179 8.22727C92.9503 8.22727 92.7112 8.28527 92.5005 8.40128C92.2922 8.51728 92.1277 8.68655 92.0069 8.90909C91.8862 9.13163 91.8258 9.40152 91.8258 9.71875ZM101.866 13.1136C101.373 13.1136 100.941 12.9964 100.57 12.7621C100.2 12.5277 99.9115 12.1998 99.7031 11.7784C99.4972 11.357 99.3942 10.8646 99.3942 10.3011C99.3942 9.73295 99.4972 9.23698 99.7031 8.81321C99.9115 8.38944 100.2 8.06037 100.57 7.82599C100.941 7.59162 101.373 7.47443 101.866 7.47443C102.358 7.47443 102.789 7.59162 103.158 7.82599C103.53 8.06037 103.819 8.38944 104.025 8.81321C104.233 9.23698 104.337 9.73295 104.337 10.3011C104.337 10.8646 104.233 11.357 104.025 11.7784C103.819 12.1998 103.53 12.5277 103.158 12.7621C102.789 12.9964 102.358 13.1136 101.866 13.1136ZM101.866 12.3608C102.24 12.3608 102.548 12.2649 102.789 12.0732C103.031 11.8814 103.209 11.6293 103.325 11.3168C103.441 11.0043 103.499 10.6657 103.499 10.3011C103.499 9.93655 103.441 9.59683 103.325 9.28196C103.209 8.96709 103.031 8.71259 102.789 8.51847C102.548 8.32434 102.24 8.22727 101.866 8.22727C101.492 8.22727 101.184 8.32434 100.942 8.51847C100.701 8.71259 100.522 8.96709 100.406 9.28196C100.29 9.59683 100.232 9.93655 100.232 10.3011C100.232 10.6657 100.29 11.0043 100.406 11.3168C100.522 11.6293 100.701 11.8814 100.942 12.0732C101.184 12.2649 101.492 12.3608 101.866 12.3608ZM106.455 9.71875V13H105.617V7.54545H106.426V8.39773H106.497C106.625 8.12074 106.819 7.8982 107.08 7.73011C107.34 7.55966 107.676 7.47443 108.088 7.47443C108.458 7.47443 108.781 7.55019 109.058 7.7017C109.335 7.85085 109.55 8.07812 109.704 8.38352C109.858 8.68655 109.935 9.07008 109.935 9.53409V13H109.097V9.59091C109.097 9.16241 108.985 8.8286 108.763 8.58949C108.54 8.34801 108.235 8.22727 107.847 8.22727C107.579 8.22727 107.34 8.28527 107.129 8.40128C106.921 8.51728 106.757 8.68655 106.636 8.90909C106.515 9.13163 106.455 9.40152 106.455 9.71875Z" fill="white"/>
<rect x="0.5" y="0.5" width="119" height="39" rx="6.5" stroke="#A6A6A6"/>
</svg>
